<svg width="20" height="10" viewBox="0 0 20 10" fill="none" xmlns="http://www.w3.org/2000/svg">
<path d="M3.06492 0.443495L10.0093 6.3361L16.9537 0.443496C17.1194 0.30289 17.3162 0.191357 17.5327 0.115262C17.7492 0.0391666 17.9812 -7.07468e-08 18.2155 -6.51537e-08C18.4499 -5.95607e-08 18.6819 0.0391666 18.8984 0.115262C19.1149 0.191357 19.3116 0.30289 19.4773 0.443496C19.643 0.584101 19.7745 0.751024 19.8642 0.934734C19.9538 1.11844 20 1.31534 20 1.51419C20 1.71303 19.9538 1.90993 19.8642 2.09364C19.7745 2.27735 19.643 2.44428 19.4773 2.58488L11.2622 9.55578C10.5642 10.1481 9.43659 10.1481 8.73857 9.55578L0.523414 2.58488C0.357494 2.44438 0.225859 2.27749 0.136045 2.09377C0.0462302 1.91004 -8.96474e-08 1.71309 -7.92386e-08 1.51419C-6.88299e-08 1.31528 0.0462303 1.11833 0.136045 0.93461C0.225859 0.750886 0.357494 0.583997 0.523415 0.443495C1.22144 -0.133616 2.3669 -0.148803 3.06492 0.443495Z" fill="#8E8E8E"/>
</svg>
